<svg width="32" height="18" viewBox="0 0 32 18" fill="none" xmlns="http://www.w3.org/2000/svg">
<path fill-rule="evenodd" clip-rule="evenodd" d="M4 0.132812C4.55228 0.132812 5 0.580528 5 1.13281V7.63281H27V1.13281C27 0.580528 27.4477 0.132812 28 0.132812C28.5523 0.132812 29 0.580528 29 1.13281V8.63281V16.1328C29 16.6851 28.5523 17.1328 28 17.1328C27.4477 17.1328 27 16.6851 27 16.1328V9.63281H5V16.1328C5 16.6851 4.55228 17.1328 4 17.1328C3.44772 17.1328 3 16.6851 3 16.1328V8.63281V1.13281C3 0.580528 3.44772 0.132812 4 0.132812ZM1 3.63281C1.55228 3.63281 2 4.08053 2 4.63281V12.6328C2 13.1851 1.55228 13.6328 1 13.6328C0.447715 13.6328 0 13.1851 0 12.6328V4.63281C0 4.08053 0.447715 3.63281 1 3.63281ZM32 4.63281C32 4.08053 31.5523 3.63281 31 3.63281C30.4477 3.63281 30 4.08053 30 4.63281V12.6328C30 13.1851 30.4477 13.6328 31 13.6328C31.5523 13.6328 32 13.1851 32 12.6328V4.63281Z" fill="#CDCDCD"/>
</svg>
